<svg xmlns="http://www.w3.org/2000/svg" xmlns:xlink="http://www.w3.org/1999/xlink" style="margin:auto;background:#ffffff;display:block;z-index:1;position:relative" width="1440" height="781" preserveAspectRatio="xMidYMid" viewBox="0 0 1440 781">
<g transform="translate(720,390.5) scale(1,1) translate(-720,-390.5)"><defs>
  <linearGradient id="ldbk-photon-5t323nj2l6e-lg" x1="234.19999999999982" x2="1440" y1="0" y2="0" gradientUnits="userSpaceOnUse">
    <stop stop-color="#1d3f72" offset="0"></stop>
    <stop stop-color="#34ffef" offset="1"></stop>
  </linearGradient>
  <mask id="ldbk-photon-5t323nj2l6e-mask">
  <g><path d="M1740 -0.5 L223.72352166343057 -0.5 A15.5 15.5 0 0 1 223.72352166343057 31.5 L1740 31.5" fill="#fff">
  <animateTransform attributeName="transform" type="translate" dur="10s" repeatCount="indefinite" keyTimes="0;0.5;1" calcMode="spline" keySplines="0.5 0 0.5 1;0.5 0 0.5 1" values="48.148254526027905;0;48.148254526027905" begin="0s"></animateTransform>
</path><path d="M1486.7462453383796 -0.5 L1502.4924906767592 -0.5 A15.5 15.5 0 0 1 1502.4924906767592 31.5 L1486.7462453383796 31.5 A15.5 15.5 0 0 1 1486.7462453383796 -0.5" fill="#000">
  <animateTransform attributeName="transform" type="translate" dur="5s" repeatCount="indefinite" keyTimes="0;1" values="0;-1321.5586736248235" begin="0s"></animateTransform>
  <animate attributeName="opacity" dur="5s" repeatCount="indefinite" keyTimes="0;0.3;1" values="1;1;0" begin="0s"></animate>
</path><path d="M1740 30.5 L190.9024273951352 30.5 A15.5 15.5 0 0 0 190.9024273951352 62.5 L1740 62.5" fill="#fff">
  <animateTransform attributeName="transform" type="translate" dur="5s" repeatCount="indefinite" keyTimes="0;0.5;1" calcMode="spline" keySplines="0.5 0 0.5 1;0.5 0 0.5 1" values="-45.67915638668436;0;-45.67915638668436" begin="-1.153846153846154s"></animateTransform>
</path><path d="M301.9910212875659 30.5 L316.3919339222412 30.5 A15.5 15.5 0 0 1 316.3919339222412 62.5 L301.9910212875659 62.5 A15.5 15.5 0 0 1 301.9910212875659 30.5" fill="#fff">
  <animateTransform attributeName="transform" type="translate" dur="5s" repeatCount="indefinite" keyTimes="0;1" values="0;0" begin="-1.153846153846154s"></animateTransform>
  <animate attributeName="opacity" dur="5s" repeatCount="indefinite" keyTimes="0;0.3;1" values="1;1;0" begin="-1.153846153846154s"></animate>
</path><path d="M1740 61.5 L206.08183943574045 61.5 A15.5 15.5 0 0 1 206.08183943574045 93.5 L1740 93.5" fill="#fff">
  <animateTransform attributeName="transform" type="translate" dur="3.3333333333333335s" repeatCount="indefinite" keyTimes="0;0.5;1" calcMode="spline" keySplines="0.5 0 0.5 1;0.5 0 0.5 1" values="35.865162994321466;0;35.865162994321466" begin="-2.307692307692308s"></animateTransform>
</path><path d="M1509.0365488937675 61.5 L1547.073097787535 61.5 A15.5 15.5 0 0 1 1547.073097787535 93.5 L1509.0365488937675 93.5 A15.5 15.5 0 0 1 1509.0365488937675 61.5" fill="#000">
  <animateTransform attributeName="transform" type="translate" dur="10s" repeatCount="indefinite" keyTimes="0;1" values="0;-1830.693373153548" begin="-2.307692307692308s"></animateTransform>
  <animate attributeName="opacity" dur="10s" repeatCount="indefinite" keyTimes="0;0.3;1" values="1;1;0" begin="-2.307692307692308s"></animate>
</path><path d="M1740 92.5 L158.51147745893604 92.5 A15.5 15.5 0 0 0 158.51147745893604 124.5 L1740 124.5" fill="#fff">
  <animateTransform attributeName="transform" type="translate" dur="5s" repeatCount="indefinite" keyTimes="0;0.5;1" calcMode="spline" keySplines="0.5 0 0.5 1;0.5 0 0.5 1" values="-30.666579736509142;0;-30.666579736509142" begin="-3.4615384615384617s"></animateTransform>
</path><path d="M308.17594816421115 92.5 L344.03195702106103 92.5 A15.5 15.5 0 0 1 344.03195702106103 124.5 L308.17594816421115 124.5 A15.5 15.5 0 0 1 308.17594816421115 92.5" fill="#fff">
  <animateTransform attributeName="transform" type="translate" dur="3.3333333333333335s" repeatCount="indefinite" keyTimes="0;1" values="0;0" begin="-3.4615384615384617s"></animateTransform>
  <animate attributeName="opacity" dur="3.3333333333333335s" repeatCount="indefinite" keyTimes="0;0.3;1" values="1;1;0" begin="-3.4615384615384617s"></animate>
</path><path d="M1740 123.5 L225.46726945633668 123.5 A15.5 15.5 0 0 1 225.46726945633668 155.5 L1740 155.5" fill="#fff">
  <animateTransform attributeName="transform" type="translate" dur="10s" repeatCount="indefinite" keyTimes="0;0.5;1" calcMode="spline" keySplines="0.5 0 0.5 1;0.5 0 0.5 1" values="37.37081177624411;0;37.37081177624411" begin="-4.615384615384616s"></animateTransform>
</path><path d="M1493.6449773498182 123.5 L1516.2899546996364 123.5 A15.5 15.5 0 0 1 1516.2899546996364 155.5 L1493.6449773498182 155.5 A15.5 15.5 0 0 1 1493.6449773498182 123.5" fill="#000">
  <animateTransform attributeName="transform" type="translate" dur="3.3333333333333335s" repeatCount="indefinite" keyTimes="0;1" values="0;-1502.9937843033754" begin="-4.615384615384616s"></animateTransform>
  <animate attributeName="opacity" dur="3.3333333333333335s" repeatCount="indefinite" keyTimes="0;0.3;1" values="1;1;0" begin="-4.615384615384616s"></animate>
</path><path d="M1740 154.5 L199.9560282228199 154.5 A15.5 15.5 0 0 0 199.9560282228199 186.5 L1740 186.5" fill="#fff">
  <animateTransform attributeName="transform" type="translate" dur="5s" repeatCount="indefinite" keyTimes="0;0.5;1" calcMode="spline" keySplines="0.5 0 0.5 1;0.5 0 0.5 1" values="-25.605108714072994;0;-25.605108714072994" begin="-5.76923076923077s"></animateTransform>
</path><path d="M257.80368448741046 154.5 L287.5047041871717 154.5 A15.5 15.5 0 0 1 287.5047041871717 186.5 L257.80368448741046 186.5 A15.5 15.5 0 0 1 257.80368448741046 154.5" fill="#fff">
  <animateTransform attributeName="transform" type="translate" dur="10s" repeatCount="indefinite" keyTimes="0;1" values="0;0" begin="-5.76923076923077s"></animateTransform>
  <animate attributeName="opacity" dur="10s" repeatCount="indefinite" keyTimes="0;0.3;1" values="1;1;0" begin="-5.76923076923077s"></animate>
</path><path d="M1740 185.5 L228.98427202739845 185.5 A15.5 15.5 0 0 1 228.98427202739845 217.5 L1740 217.5" fill="#fff">
  <animateTransform attributeName="transform" type="translate" dur="3.3333333333333335s" repeatCount="indefinite" keyTimes="0;0.5;1" calcMode="spline" keySplines="0.5 0 0.5 1;0.5 0 0.5 1" values="32.704529389775196;0;32.704529389775196" begin="-6.923076923076923s"></animateTransform>
</path><path d="M1492.6898477309105 185.5 L1514.379695461821 185.5 A15.5 15.5 0 0 1 1514.379695461821 217.5 L1492.6898477309105 217.5 A15.5 15.5 0 0 1 1492.6898477309105 185.5" fill="#000">
  <animateTransform attributeName="transform" type="translate" dur="3.3333333333333335s" repeatCount="indefinite" keyTimes="0;1" values="0;-2015.93454703187" begin="-6.923076923076923s"></animateTransform>
  <animate attributeName="opacity" dur="3.3333333333333335s" repeatCount="indefinite" keyTimes="0;0.3;1" values="1;1;0" begin="-6.923076923076923s"></animate>
</path><path d="M1740 216.5 L172.9090838410939 216.5 A15.5 15.5 0 0 0 172.9090838410939 248.5 L1740 248.5" fill="#fff">
  <animateTransform attributeName="transform" type="translate" dur="5s" repeatCount="indefinite" keyTimes="0;0.5;1" calcMode="spline" keySplines="0.5 0 0.5 1;0.5 0 0.5 1" values="-30.95248984819772;0;-30.95248984819772" begin="-8.076923076923077s"></animateTransform>
</path><path d="M288.1085983649182 216.5 L303.4858451539213 216.5 A15.5 15.5 0 0 1 303.4858451539213 248.5 L288.1085983649182 248.5 A15.5 15.5 0 0 1 288.1085983649182 216.5" fill="#fff">
  <animateTransform attributeName="transform" type="translate" dur="5s" repeatCount="indefinite" keyTimes="0;1" values="0;0" begin="-8.076923076923077s"></animateTransform>
  <animate attributeName="opacity" dur="5s" repeatCount="indefinite" keyTimes="0;0.3;1" values="1;1;0" begin="-8.076923076923077s"></animate>
</path><path d="M1740 247.5 L216.56561974306578 247.5 A15.5 15.5 0 0 1 216.56561974306578 279.5 L1740 279.5" fill="#fff">
  <animateTransform attributeName="transform" type="translate" dur="5s" repeatCount="indefinite" keyTimes="0;0.5;1" calcMode="spline" keySplines="0.5 0 0.5 1;0.5 0 0.5 1" values="28.24141556925013;0;28.24141556925013" begin="-9.230769230769232s"></animateTransform>
</path><path d="M1494.7384289087809 247.5 L1518.4768578175617 247.5 A15.5 15.5 0 0 1 1518.4768578175617 279.5 L1494.7384289087809 279.5 A15.5 15.5 0 0 1 1494.7384289087809 247.5" fill="#000">
  <animateTransform attributeName="transform" type="translate" dur="3.3333333333333335s" repeatCount="indefinite" keyTimes="0;1" values="0;-1838.295213200362" begin="-9.230769230769232s"></animateTransform>
  <animate attributeName="opacity" dur="3.3333333333333335s" repeatCount="indefinite" keyTimes="0;0.3;1" values="1;1;0" begin="-9.230769230769232s"></animate>
</path><path d="M1740 278.5 L214.31408414234352 278.5 A15.5 15.5 0 0 0 214.31408414234352 310.5 L1740 310.5" fill="#fff">
  <animateTransform attributeName="transform" type="translate" dur="10s" repeatCount="indefinite" keyTimes="0;0.5;1" calcMode="spline" keySplines="0.5 0 0.5 1;0.5 0 0.5 1" values="-32.05079493820116;0;-32.05079493820116" begin="-10.384615384615383s"></animateTransform>
</path><path d="M277.3465831341284 278.5 L305.54768663823967 278.5 A15.5 15.5 0 0 1 305.54768663823967 310.5 L277.3465831341284 310.5 A15.5 15.5 0 0 1 277.3465831341284 278.5" fill="#fff">
  <animateTransform attributeName="transform" type="translate" dur="5s" repeatCount="indefinite" keyTimes="0;1" values="0;0" begin="-10.384615384615383s"></animateTransform>
  <animate attributeName="opacity" dur="5s" repeatCount="indefinite" keyTimes="0;0.3;1" values="1;1;0" begin="-10.384615384615383s"></animate>
</path><path d="M1740 309.5 L225.87166785368322 309.5 A15.5 15.5 0 0 1 225.87166785368322 341.5 L1740 341.5" fill="#fff">
  <animateTransform attributeName="transform" type="translate" dur="3.3333333333333335s" repeatCount="indefinite" keyTimes="0;0.5;1" calcMode="spline" keySplines="0.5 0 0.5 1;0.5 0 0.5 1" values="29.887200532077742;0;29.887200532077742" begin="-11.53846153846154s"></animateTransform>
</path><path d="M1510.6717137772876 309.5 L1550.343427554575 309.5 A15.5 15.5 0 0 1 1550.343427554575 341.5 L1510.6717137772876 341.5 A15.5 15.5 0 0 1 1510.6717137772876 309.5" fill="#000">
  <animateTransform attributeName="transform" type="translate" dur="5s" repeatCount="indefinite" keyTimes="0;1" values="0;-1367.6574183754162" begin="-11.53846153846154s"></animateTransform>
  <animate attributeName="opacity" dur="5s" repeatCount="indefinite" keyTimes="0;0.3;1" values="1;1;0" begin="-11.53846153846154s"></animate>
</path><path d="M1740 340.5 L174.48437026326292 340.5 A15.5 15.5 0 0 0 174.48437026326292 372.5 L1740 372.5" fill="#fff">
  <animateTransform attributeName="transform" type="translate" dur="10s" repeatCount="indefinite" keyTimes="0;0.5;1" calcMode="spline" keySplines="0.5 0 0.5 1;0.5 0 0.5 1" values="-47.69536322682172;0;-47.69536322682172" begin="-12.692307692307692s"></animateTransform>
</path><path d="M300.35289244365276 340.5 L336.0219738558137 340.5 A15.5 15.5 0 0 1 336.0219738558137 372.5 L300.35289244365276 372.5 A15.5 15.5 0 0 1 300.35289244365276 340.5" fill="#fff">
  <animateTransform attributeName="transform" type="translate" dur="3.3333333333333335s" repeatCount="indefinite" keyTimes="0;1" values="0;0" begin="-12.692307692307692s"></animateTransform>
  <animate attributeName="opacity" dur="3.3333333333333335s" repeatCount="indefinite" keyTimes="0;0.3;1" values="1;1;0" begin="-12.692307692307692s"></animate>
</path><path d="M1740 371.5 L231.55961158399668 371.5 A15.5 15.5 0 0 1 231.55961158399668 403.5 L1740 403.5" fill="#fff">
  <animateTransform attributeName="transform" type="translate" dur="10s" repeatCount="indefinite" keyTimes="0;0.5;1" calcMode="spline" keySplines="0.5 0 0.5 1;0.5 0 0.5 1" values="33.22886983870849;0;33.22886983870849" begin="-13.846153846153847s"></animateTransform>
</path><path d="M1484.6375506363645 371.5 L1498.275101272729 371.5 A15.5 15.5 0 0 1 1498.275101272729 403.5 L1484.6375506363645 403.5 A15.5 15.5 0 0 1 1484.6375506363645 371.5" fill="#000">
  <animateTransform attributeName="transform" type="translate" dur="3.3333333333333335s" repeatCount="indefinite" keyTimes="0;1" values="0;-1341.3677421662655" begin="-13.846153846153847s"></animateTransform>
  <animate attributeName="opacity" dur="3.3333333333333335s" repeatCount="indefinite" keyTimes="0;0.3;1" values="1;1;0" begin="-13.846153846153847s"></animate>
</path><path d="M1740 402.5 L183.12756856825263 402.5 A15.5 15.5 0 0 0 183.12756856825263 434.5 L1740 434.5" fill="#fff">
  <animateTransform attributeName="transform" type="translate" dur="3.3333333333333335s" repeatCount="indefinite" keyTimes="0;0.5;1" calcMode="spline" keySplines="0.5 0 0.5 1;0.5 0 0.5 1" values="-29.902620619879134;0;-29.902620619879134" begin="-15s"></animateTransform>
</path><path d="M319.5289527235004 402.5 L332.4144931601438 402.5 A15.5 15.5 0 0 1 332.4144931601438 434.5 L319.5289527235004 434.5 A15.5 15.5 0 0 1 319.5289527235004 402.5" fill="#fff">
  <animateTransform attributeName="transform" type="translate" dur="5s" repeatCount="indefinite" keyTimes="0;1" values="0;0" begin="-15s"></animateTransform>
  <animate attributeName="opacity" dur="5s" repeatCount="indefinite" keyTimes="0;0.3;1" values="1;1;0" begin="-15s"></animate>
</path><path d="M1740 433.5 L253.41238201616216 433.5 A15.5 15.5 0 0 1 253.41238201616216 465.5 L1740 465.5" fill="#fff">
  <animateTransform attributeName="transform" type="translate" dur="5s" repeatCount="indefinite" keyTimes="0;0.5;1" calcMode="spline" keySplines="0.5 0 0.5 1;0.5 0 0.5 1" values="33.925998738832746;0;33.925998738832746" begin="-16.153846153846153s"></animateTransform>
</path><path d="M1490.3105908617044 433.5 L1509.6211817234089 433.5 A15.5 15.5 0 0 1 1509.6211817234089 465.5 L1490.3105908617044 465.5 A15.5 15.5 0 0 1 1490.3105908617044 433.5" fill="#000">
  <animateTransform attributeName="transform" type="translate" dur="3.3333333333333335s" repeatCount="indefinite" keyTimes="0;1" values="0;-1620.778820618491" begin="-16.153846153846153s"></animateTransform>
  <animate attributeName="opacity" dur="3.3333333333333335s" repeatCount="indefinite" keyTimes="0;0.3;1" values="1;1;0" begin="-16.153846153846153s"></animate>
</path><path d="M1740 464.5 L235.59588835532486 464.5 A15.5 15.5 0 0 0 235.59588835532486 496.5 L1740 496.5" fill="#fff">
  <animateTransform attributeName="transform" type="translate" dur="5s" repeatCount="indefinite" keyTimes="0;0.5;1" calcMode="spline" keySplines="0.5 0 0.5 1;0.5 0 0.5 1" values="-49.64760593906909;0;-49.64760593906909" begin="-17.307692307692307s"></animateTransform>
</path><path d="M337.3200722889146 464.5 L353.5927329228381 464.5 A15.5 15.5 0 0 1 353.5927329228381 496.5 L337.3200722889146 496.5 A15.5 15.5 0 0 1 337.3200722889146 464.5" fill="#fff">
  <animateTransform attributeName="transform" type="translate" dur="5s" repeatCount="indefinite" keyTimes="0;1" values="0;0" begin="-17.307692307692307s"></animateTransform>
  <animate attributeName="opacity" dur="5s" repeatCount="indefinite" keyTimes="0;0.3;1" values="1;1;0" begin="-17.307692307692307s"></animate>
</path><path d="M1740 495.5 L290.6106251107444 495.5 A15.5 15.5 0 0 1 290.6106251107444 527.5 L1740 527.5" fill="#fff">
  <animateTransform attributeName="transform" type="translate" dur="3.3333333333333335s" repeatCount="indefinite" keyTimes="0;0.5;1" calcMode="spline" keySplines="0.5 0 0.5 1;0.5 0 0.5 1" values="29.098486420613966;0;29.098486420613966" begin="-18.461538461538463s"></animateTransform>
</path><path d="M1499.8202885932672 495.5 L1528.6405771865343 495.5 A15.5 15.5 0 0 1 1528.6405771865343 527.5 L1499.8202885932672 527.5 A15.5 15.5 0 0 1 1499.8202885932672 495.5" fill="#000">
  <animateTransform attributeName="transform" type="translate" dur="5s" repeatCount="indefinite" keyTimes="0;1" values="0;-1912.5393764004484" begin="-18.461538461538463s"></animateTransform>
  <animate attributeName="opacity" dur="5s" repeatCount="indefinite" keyTimes="0;0.3;1" values="1;1;0" begin="-18.461538461538463s"></animate>
</path><path d="M1740 526.5 L256.4240536652296 526.5 A15.5 15.5 0 0 0 256.4240536652296 558.5 L1740 558.5" fill="#fff">
  <animateTransform attributeName="transform" type="translate" dur="10s" repeatCount="indefinite" keyTimes="0;0.5;1" calcMode="spline" keySplines="0.5 0 0.5 1;0.5 0 0.5 1" values="-47.634984134521616;0;-47.634984134521616" begin="-19.615384615384617s"></animateTransform>
</path><path d="M310.84152960437495 526.5 L329.49468423443415 526.5 A15.5 15.5 0 0 1 329.49468423443415 558.5 L310.84152960437495 558.5 A15.5 15.5 0 0 1 310.84152960437495 526.5" fill="#fff">
  <animateTransform attributeName="transform" type="translate" dur="10s" repeatCount="indefinite" keyTimes="0;1" values="0;0" begin="-19.615384615384617s"></animateTransform>
  <animate attributeName="opacity" dur="10s" repeatCount="indefinite" keyTimes="0;0.3;1" values="1;1;0" begin="-19.615384615384617s"></animate>
</path><path d="M1740 557.5 L276.9087080950226 557.5 A15.5 15.5 0 0 1 276.9087080950226 589.5 L1740 589.5" fill="#fff">
  <animateTransform attributeName="transform" type="translate" dur="3.3333333333333335s" repeatCount="indefinite" keyTimes="0;0.5;1" calcMode="spline" keySplines="0.5 0 0.5 1;0.5 0 0.5 1" values="45.18025326134768;0;45.18025326134768" begin="-20.769230769230766s"></animateTransform>
</path><path d="M1509.7460055179824 557.5 L1548.4920110359649 557.5 A15.5 15.5 0 0 1 1548.4920110359649 589.5 L1509.7460055179824 589.5 A15.5 15.5 0 0 1 1509.7460055179824 557.5" fill="#000">
  <animateTransform attributeName="transform" type="translate" dur="5s" repeatCount="indefinite" keyTimes="0;1" values="0;-1453.9417955083686" begin="-20.769230769230766s"></animateTransform>
  <animate attributeName="opacity" dur="5s" repeatCount="indefinite" keyTimes="0;0.3;1" values="1;1;0" begin="-20.769230769230766s"></animate>
</path><path d="M1740 588.5 L216.81873395563298 588.5 A15.5 15.5 0 0 0 216.81873395563298 620.5 L1740 620.5" fill="#fff">
  <animateTransform attributeName="transform" type="translate" dur="3.3333333333333335s" repeatCount="indefinite" keyTimes="0;0.5;1" calcMode="spline" keySplines="0.5 0 0.5 1;0.5 0 0.5 1" values="-41.38747308578003;0;-41.38747308578003" begin="-21.92307692307692s"></animateTransform>
</path><path d="M366.726052293674 588.5 L394.08915347426415 588.5 A15.5 15.5 0 0 1 394.08915347426415 620.5 L366.726052293674 620.5 A15.5 15.5 0 0 1 366.726052293674 588.5" fill="#fff">
  <animateTransform attributeName="transform" type="translate" dur="3.3333333333333335s" repeatCount="indefinite" keyTimes="0;1" values="0;0" begin="-21.92307692307692s"></animateTransform>
  <animate attributeName="opacity" dur="3.3333333333333335s" repeatCount="indefinite" keyTimes="0;0.3;1" values="1;1;0" begin="-21.92307692307692s"></animate>
</path><path d="M1740 619.5 L280.3669868445729 619.5 A15.5 15.5 0 0 1 280.3669868445729 651.5 L1740 651.5" fill="#fff">
  <animateTransform attributeName="transform" type="translate" dur="5s" repeatCount="indefinite" keyTimes="0;0.5;1" calcMode="spline" keySplines="0.5 0 0.5 1;0.5 0 0.5 1" values="39.62328256256032;0;39.62328256256032" begin="-23.07692307692308s"></animateTransform>
</path><path d="M1496.3738013194263 619.5 L1521.7476026388526 619.5 A15.5 15.5 0 0 1 1521.7476026388526 651.5 L1496.3738013194263 651.5 A15.5 15.5 0 0 1 1496.3738013194263 619.5" fill="#000">
  <animateTransform attributeName="transform" type="translate" dur="10s" repeatCount="indefinite" keyTimes="0;1" values="0;-1904.1204088041795" begin="-23.07692307692308s"></animateTransform>
  <animate attributeName="opacity" dur="10s" repeatCount="indefinite" keyTimes="0;0.3;1" values="1;1;0" begin="-23.07692307692308s"></animate>
</path><path d="M1740 650.5 L251.36323759651668 650.5 A15.5 15.5 0 0 0 251.36323759651668 682.5 L1740 682.5" fill="#fff">
  <animateTransform attributeName="transform" type="translate" dur="5s" repeatCount="indefinite" keyTimes="0;0.5;1" calcMode="spline" keySplines="0.5 0 0.5 1;0.5 0 0.5 1" values="-33.1793294489865;0;-33.1793294489865" begin="-24.230769230769234s"></animateTransform>
</path><path d="M339.3692437403597 650.5 L360.78326652470054 650.5 A15.5 15.5 0 0 1 360.78326652470054 682.5 L339.3692437403597 682.5 A15.5 15.5 0 0 1 339.3692437403597 650.5" fill="#fff">
  <animateTransform attributeName="transform" type="translate" dur="10s" repeatCount="indefinite" keyTimes="0;1" values="0;0" begin="-24.230769230769234s"></animateTransform>
  <animate attributeName="opacity" dur="10s" repeatCount="indefinite" keyTimes="0;0.3;1" values="1;1;0" begin="-24.230769230769234s"></animate>
</path><path d="M1740 681.5 L270.8559666627791 681.5 A15.5 15.5 0 0 1 270.8559666627791 713.5 L1740 713.5" fill="#fff">
  <animateTransform attributeName="transform" type="translate" dur="10s" repeatCount="indefinite" keyTimes="0;0.5;1" calcMode="spline" keySplines="0.5 0 0.5 1;0.5 0 0.5 1" values="42.85342073995074;0;42.85342073995074" begin="-25.384615384615383s"></animateTransform>
</path><path d="M1503.8884549113006 681.5 L1536.7769098226013 681.5 A15.5 15.5 0 0 1 1536.7769098226013 713.5 L1503.8884549113006 713.5 A15.5 15.5 0 0 1 1503.8884549113006 681.5" fill="#000">
  <animateTransform attributeName="transform" type="translate" dur="10s" repeatCount="indefinite" keyTimes="0;1" values="0;-1537.9935333266292" begin="-25.384615384615383s"></animateTransform>
  <animate attributeName="opacity" dur="10s" repeatCount="indefinite" keyTimes="0;0.3;1" values="1;1;0" begin="-25.384615384615383s"></animate>
</path><path d="M1740 712.5 L218.42164414592708 712.5 A15.5 15.5 0 0 0 218.42164414592708 744.5 L1740 744.5" fill="#fff">
  <animateTransform attributeName="transform" type="translate" dur="3.3333333333333335s" repeatCount="indefinite" keyTimes="0;0.5;1" calcMode="spline" keySplines="0.5 0 0.5 1;0.5 0 0.5 1" values="-38.34962894291198;0;-38.34962894291198" begin="-26.538461538461537s"></animateTransform>
</path><path d="M352.27595936245916 712.5 L376.1518382338012 712.5 A15.5 15.5 0 0 1 376.1518382338012 744.5 L352.27595936245916 744.5 A15.5 15.5 0 0 1 352.27595936245916 712.5" fill="#fff">
  <animateTransform attributeName="transform" type="translate" dur="3.3333333333333335s" repeatCount="indefinite" keyTimes="0;1" values="0;0" begin="-26.538461538461537s"></animateTransform>
  <animate attributeName="opacity" dur="3.3333333333333335s" repeatCount="indefinite" keyTimes="0;0.3;1" values="1;1;0" begin="-26.538461538461537s"></animate>
</path><path d="M1740 743.5 L263.41495370662165 743.5 A15.5 15.5 0 0 1 263.41495370662165 775.5 L1740 775.5" fill="#fff">
  <animateTransform attributeName="transform" type="translate" dur="10s" repeatCount="indefinite" keyTimes="0;0.5;1" calcMode="spline" keySplines="0.5 0 0.5 1;0.5 0 0.5 1" values="36.023042578028615;0;36.023042578028615" begin="-27.692307692307693s"></animateTransform>
</path><path d="M1495.2839969376244 743.5 L1519.5679938752487 743.5 A15.5 15.5 0 0 1 1519.5679938752487 775.5 L1495.2839969376244 775.5 A15.5 15.5 0 0 1 1495.2839969376244 743.5" fill="#000">
  <animateTransform attributeName="transform" type="translate" dur="5s" repeatCount="indefinite" keyTimes="0;1" values="0;-1323.8086529370132" begin="-27.692307692307693s"></animateTransform>
  <animate attributeName="opacity" dur="5s" repeatCount="indefinite" keyTimes="0;0.3;1" values="1;1;0" begin="-27.692307692307693s"></animate>
</path><path d="M1740 774.5 L207.03379538312697 774.5 A15.5 15.5 0 0 0 207.03379538312697 806.5 L1740 806.5" fill="#fff">
  <animateTransform attributeName="transform" type="translate" dur="10s" repeatCount="indefinite" keyTimes="0;0.5;1" calcMode="spline" keySplines="0.5 0 0.5 1;0.5 0 0.5 1" values="-42.17993561846784;0;-42.17993561846784" begin="-28.846153846153847s"></animateTransform>
</path><path d="M324.23234962675474 774.5 L346.3654406687029 774.5 A15.5 15.5 0 0 1 346.3654406687029 806.5 L324.23234962675474 806.5 A15.5 15.5 0 0 1 324.23234962675474 774.5" fill="#fff">
  <animateTransform attributeName="transform" type="translate" dur="10s" repeatCount="indefinite" keyTimes="0;1" values="0;0" begin="-28.846153846153847s"></animateTransform>
  <animate attributeName="opacity" dur="10s" repeatCount="indefinite" keyTimes="0;0.3;1" values="1;1;0" begin="-28.846153846153847s"></animate>
</path>    </g>
  </mask>
</defs>
<rect x="0" y="0" width="1440" height="781" fill="url(#ldbk-photon-5t323nj2l6e-lg)" mask="url(#ldbk-photon-5t323nj2l6e-mask)"></rect></g>
</svg>